<svg width="42" height="45" fill="none" xmlns="http://www.w3.org/2000/svg"><g clip-path="url(#clip0_30_132)" fill="#FF3944"><path d="M27.72 22.957a8.184 8.184 0 01-.551 2.963 7.666 7.666 0 01-1.57 2.496 6.963 6.963 0 01-2.339 1.634 6.5 6.5 0 01-2.74.516c-1.89-.009-3.699-.83-5.033-2.284-1.334-1.454-2.084-3.423-2.087-5.477.046-2.052.822-4.004 2.165-5.447 1.342-1.443 3.147-2.265 5.035-2.292a6.69 6.69 0 012.748.62 7.19 7.19 0 012.319 1.72 7.9 7.9 0 011.535 2.553c.353.952.529 1.971.518 2.998z"/><path d="M32.37 0H8.76C6.436.003 4.208 1.008 2.565 2.796.923 4.583 0 7.006 0 9.533v25.653c0 2.526.923 4.949 2.565 6.736 1.643 1.788 3.87 2.794 6.195 2.796h23.61c2.324-.003 4.552-1.008 6.195-2.796 1.642-1.787 2.565-4.21 2.565-6.736V9.533c0-2.527-.923-4.95-2.565-6.737C36.922 1.009 34.695.003 32.37 0zM20.56 34.783c-2.173-.013-4.294-.725-6.095-2.046-1.8-1.322-3.201-3.194-4.025-5.38a12.928 12.928 0 01-.601-6.903c.43-2.315 1.483-4.44 3.024-6.105 1.54-1.666 3.5-2.798 5.633-3.254a10.186 10.186 0 016.347.691c2.007.907 3.721 2.44 4.927 4.405 1.206 1.964 1.85 4.274 1.85 6.636a12.774 12.774 0 01-.821 4.604 11.987 11.987 0 01-2.398 3.9 10.896 10.896 0 01-3.6 2.585 10.157 10.157 0 01-4.241.867zm11.36-21.652a2.6 2.6 0 01-1.792-.885 3.058 3.058 0 01-.758-1.974 3.162 3.162 0 01.871-1.923 2.7 2.7 0 011.819-.827c.68.031 1.32.352 1.782.894.462.541.71 1.259.688 1.997 0 .367-.068.73-.2 1.069a2.733 2.733 0 01-.57.896 2.481 2.481 0 01-.85.581 2.31 2.31 0 01-.99.172z"/></g><defs><clipPath id="clip0_30_132"><path fill="#fff" d="M0 0h41.13v44.718H0z"/></clipPath></defs></svg>