<svg width="40" height="43" fill="none" xmlns="http://www.w3.org/2000/svg"><path d="M39.15 7.326a8.604 8.604 0 00-.77-2.706 7.737 7.737 0 00-2-2.653 7.3 7.3 0 00-4-1.804A20.13 20.13 0 0029.94 0H11.29c-1 0-2.07 0-3.11.054-.532.02-1.062.07-1.59.153a7.538 7.538 0 00-3.73 1.815C1.717 3.058.879 4.438.45 5.989A15.138 15.138 0 000 9.783v24.011c0 .566.06 1.152.14 1.729a9.38 9.38 0 001.1 3.26c.749 1.297 1.816 2.34 3.08 3.011a8.236 8.236 0 003.27.88c.93 0 1.86.077 2.78.077h20.76a11.025 11.025 0 001.57-.163 7.209 7.209 0 002.8-1.088 7.86 7.86 0 002.2-2.173 8.832 8.832 0 001.49-4.109c.1-.891.13-1.783.15-2.685V11.022a30.366 30.366 0 00-.19-3.696zm-8.63 5.783c-.05 1-.2 1.978-.33 2.967-.16 1.196-.33 2.403-.49 3.598-.16 1.196-.36 2.435-.53 3.663-.17 1.229-.39 2.544-.54 3.837a18.54 18.54 0 01-.33 2.229c-.086.417-.253.81-.49 1.152a1.43 1.43 0 01-.727.563 1.309 1.309 0 01-.892-.02 5.084 5.084 0 01-1.79-1.021c-1.28-1-2.6-1.913-3.91-2.859-.57-.413-1.15-.826-1.71-1.25a1.277 1.277 0 01-.37-.428 1.42 1.42 0 01-.083-1.14c.066-.185.17-.351.303-.486.35-.424.76-.772 1.14-1.153.67-.684 1.35-1.358 2-2.065 1-.989 2-1.978 2.9-3.01.15-.164.27-.338.4-.5a.413.413 0 000-.5.374.374 0 00-.21-.132.353.353 0 00-.24.033 3.298 3.298 0 00-.77.5c-1.42 1-2.79 2.076-4.18 3.087-1.15.826-2.23 1.729-3.38 2.511a4.56 4.56 0 01-1.81.837c-.372.053-.75.024-1.11-.087-1-.337-2.07-.565-3.09-.891a5.715 5.715 0 01-1-.413 1.164 1.164 0 01-.15-.098.658.658 0 01-.208-.218.724.724 0 01-.062-.607c.034-.1.089-.19.16-.262.225-.239.494-.424.79-.543l3.94-1.88 6.08-2.86c2.29-1.087 4.59-2.087 6.9-3.076a18.021 18.021 0 011.89-.793 1.847 1.847 0 011-.076c.238.044.456.176.616.374.16.198.253.45.264.713.03.043.02.174.02.304z" fill="#FF3944"/></svg>