<svg width="41" height="45" fill="none" xmlns="http://www.w3.org/2000/svg"><path d="M40.572 17.316a57.658 57.658 0 00-.41-8.098c-.163-2.54-1.241-4.907-3-6.588-1.54-1.274-3.398-2.009-5.33-2.108a125.792 125.792 0 00-22.89 0C3.702 1 1.032 3.978.432 9.642a117.408 117.408 0 00-.4 12.435c-.102 4.262.041 8.528.43 12.772.46 3.956 2 7.054 5.81 8.293a17.09 17.09 0 004.12.772c4.94.37 9.89.152 14.83.196a47.97 47.97 0 006.81-.402c4.33-.598 6.85-2.86 7.81-7.099a22.78 22.78 0 00.5-3.51c.4-5.261.18-10.512.23-15.783zm-7.91 14.522h-2.66a.993.993 0 01-.748-.18 1.155 1.155 0 01-.442-.68 8.923 8.923 0 00-2.245-3.573 7.945 7.945 0 00-3.535-1.991c-.69-.164-.89 0-.87.76.06 1.555 0 3.12 0 4.664.05.902-.26 1.01-1 .989-7.31-.218-12.37-4.99-13.76-13.044a31.004 31.004 0 01-.48-4.402c0-.652.12-.946.78-.924a24.19 24.19 0 003.07 0c.6 0 .73.25.76.837a20.37 20.37 0 001.54 7.206c.722 1.779 1.962 3.25 3.53 4.185 1.05.598 1.11.566 1.12-.695V14.544c0-.794.15-1.152.95-1.087a14.4 14.4 0 002.56 0c.7 0 1 .185.93.989-.05 1.74 0 3.49 0 5.217 0 1.196.05 1.24 1.09.772a8.787 8.787 0 002.93-2.254 9.693 9.693 0 001.85-3.344c.4-1.087.86-1.521 1.91-1.38a8.625 8.625 0 002.05 0c.8-.055.91.282.7 1.087-.831 3.075-2.593 5.756-5 7.609-.17.12-.33.26-.49.391-.16.13 0 .076-.06.152 2.925 1.646 5.194 4.4 6.38 7.74.51 1.402.51 1.402-.86 1.402z" fill="#FF3944"/></svg>