<svg width="42" height="45" fill="none" xmlns="http://www.w3.org/2000/svg"><g clip-path="url(#clip0_30_130)"><path d="M32.37 0H8.77C6.444 0 4.213 1.004 2.569 2.792.924 4.58 0 7.005 0 9.532v25.654c0 2.528.924 4.953 2.569 6.74 1.644 1.788 3.875 2.792 6.201 2.792h23.6c2.324-.003 4.552-1.008 6.195-2.796 1.642-1.787 2.565-4.21 2.565-6.736V9.533c0-2.527-.923-4.95-2.565-6.737C36.922 1.009 34.695.003 32.37 0zM13.73 31.055V13.663l15.64 8.696-15.64 8.696z" fill="#FF3944"/></g><defs><clipPath id="clip0_30_130"><path fill="#fff" d="M0 0h41.13v44.718H0z"/></clipPath></defs></svg>