<svg width="42" height="45" viewBox="0 0 42 45" fill="none" xmlns="http://www.w3.org/2000/svg">
<g clip-path="url(#clip0_30_132)">
<path d="M27.72 22.957C27.7204 23.9748 27.5329 24.9823 27.1687 25.9199C26.8045 26.8575 26.2709 27.7062 25.5995 28.4157C24.9282 29.1251 24.1327 29.681 23.2602 30.0503C22.3877 30.4197 21.4559 30.595 20.52 30.5659C18.6306 30.5573 16.8212 29.7361 15.4871 28.2819C14.153 26.8277 13.4026 24.8586 13.4 22.8049C13.4464 20.7531 14.2223 18.8008 15.5648 17.3577C16.9074 15.9146 18.7121 15.093 20.6 15.0656C21.5446 15.0741 22.4784 15.2851 23.3478 15.6866C24.2172 16.0881 25.0052 16.6721 25.6667 17.4052C26.3281 18.1383 26.8499 19.006 27.2023 19.9587C27.5546 20.9114 27.7306 21.9303 27.72 22.957Z" fill="#FF3944"/>
<path d="M32.37 0H8.76C6.43578 0.00288071 4.20767 1.0085 2.56514 2.79594C0.922605 4.58338 -1.51094e-06 7.00644 0 9.53282L0 35.1856C-1.51094e-06 37.7119 0.922605 40.135 2.56514 41.9224C4.20767 43.7099 6.43578 44.7155 8.76 44.7184H32.37C34.6942 44.7155 36.9223 43.7099 38.5649 41.9224C40.2074 40.135 41.13 37.7119 41.13 35.1856V9.53282C41.13 7.00644 40.2074 4.58338 38.5649 2.79594C36.9223 1.0085 34.6942 0.00288071 32.37 0ZM20.56 34.7834C18.387 34.7705 16.2662 34.0583 14.4652 32.7367C12.6641 31.415 11.2636 29.5432 10.4402 27.3572C9.61683 25.1713 9.40754 22.7693 9.83873 20.4542C10.2699 18.1391 11.3223 16.0148 12.863 14.3491C14.4037 12.6834 16.3638 11.5511 18.496 11.095C20.6281 10.6389 22.8368 10.8795 24.8433 11.7863C26.8498 12.6932 28.5642 14.2257 29.7703 16.1906C30.9763 18.1554 31.62 20.4646 31.62 22.8266C31.6308 24.4056 31.3516 25.971 30.7988 27.4312C30.2461 28.8914 29.4308 30.2171 28.4009 31.3306C27.3709 32.444 26.1469 33.323 24.8005 33.9159C23.4542 34.5087 22.0125 34.8037 20.56 34.7834ZM31.92 13.1307C31.2414 13.0924 30.6012 12.7764 30.1281 12.2461C29.6551 11.7157 29.3842 11.0105 29.37 10.272C29.4372 9.53772 29.7466 8.85471 30.2411 8.34919C30.7355 7.84366 31.3817 7.5498 32.06 7.52191C32.7391 7.55303 33.3794 7.87417 33.8419 8.41556C34.3044 8.95695 34.5517 9.67485 34.53 10.4133C34.5303 10.7804 34.4622 11.1438 34.3297 11.4816C34.1973 11.8193 34.0032 12.1244 33.7593 12.3783C33.5154 12.6323 33.2266 12.8299 32.9105 12.9592C32.5944 13.0885 32.2574 13.1469 31.92 13.1307Z" fill="#FF3944"/>
</g>
<defs>
<clipPath id="clip0_30_132">
<rect width="41.13" height="44.7184" fill="white"/>
</clipPath>
</defs>
</svg>
