<svg width="40" height="43" viewBox="0 0 40 43" fill="none" xmlns="http://www.w3.org/2000/svg">
<path d="M39.1505 7.32625C39.0424 6.38183 38.7817 5.46559 38.3805 4.61967C37.9022 3.58594 37.2191 2.68018 36.3805 1.96743C35.2361 0.957569 33.8465 0.330719 32.3805 0.163047C31.5805 0.0652188 30.7605 0 29.9405 0H11.2905C10.2905 0 9.22051 0 8.18051 0.054349C7.64833 0.0731494 7.11752 0.123953 6.59051 0.206526C5.22113 0.441526 3.93383 1.06801 2.86051 2.02178C1.71598 3.05814 0.877743 4.4381 0.45051 5.98926C0.14143 7.22542 -0.00998539 8.50187 0.000510436 9.78283C0.000510436 10.6633 0.000510436 11.5546 0.000510436 12.4351V32.6094C0.000510436 33.0007 0.000510436 33.392 0.000510436 33.7942C0.000510436 34.3595 0.0605104 34.9464 0.14051 35.5225C0.306146 36.6776 0.67996 37.7858 1.24051 38.7835C1.98885 40.0796 3.05567 41.1225 4.32051 41.7944C5.34818 42.3141 6.45852 42.613 7.59051 42.6749C8.52051 42.6749 9.45051 42.7509 10.3705 42.7509H28.0005C29.0005 42.7509 30.0905 42.7509 31.1305 42.7509C31.6566 42.7344 32.1811 42.6799 32.7005 42.5879C33.6905 42.4295 34.642 42.0598 35.5001 41.5002C36.3582 40.9405 37.106 40.202 37.7005 39.327C38.5254 38.1263 39.0398 36.7077 39.1905 35.2182C39.2905 34.3268 39.3205 33.4355 39.3405 32.5333V11.022C39.3523 9.78686 39.2889 8.55225 39.1505 7.32625ZM30.5205 13.109C30.4705 14.109 30.3205 15.0873 30.1905 16.0764C30.0305 17.2721 29.8605 18.4787 29.7005 19.6743C29.5405 20.87 29.3405 22.1092 29.1705 23.3375C29.0005 24.5658 28.7805 25.881 28.6305 27.1745C28.5653 27.9243 28.455 28.6687 28.3005 29.4028C28.2141 29.8203 28.047 30.213 27.8105 30.555C27.6302 30.8229 27.3751 31.0205 27.0833 31.1184C26.7915 31.2163 26.4784 31.2093 26.1905 31.0985C25.5382 30.8882 24.9301 30.5411 24.4005 30.0768C23.1205 29.0767 21.8005 28.1637 20.4905 27.218C19.9205 26.8049 19.3405 26.3919 18.7805 25.968C18.6292 25.8575 18.5027 25.7113 18.4107 25.5402C18.3186 25.3692 18.2633 25.1777 18.2489 24.9802C18.2345 24.7826 18.2613 24.5841 18.3274 24.3994C18.3935 24.2147 18.4971 24.0486 18.6305 23.9136C18.9805 23.4897 19.3905 23.1418 19.7705 22.7614C20.4405 22.0766 21.1205 21.4026 21.7705 20.6961C22.7705 19.707 23.7705 18.7178 24.6705 17.6852C24.8205 17.5221 24.9405 17.3482 25.0705 17.1852C25.1242 17.1149 25.1536 17.0265 25.1536 16.9352C25.1536 16.8438 25.1242 16.7554 25.0705 16.6852C25.0156 16.6178 24.9419 16.5717 24.8606 16.5541C24.7794 16.5364 24.6951 16.5481 24.6205 16.5873C24.3443 16.7156 24.0853 16.8838 23.8505 17.0873C22.4305 18.0874 21.0605 19.1635 19.6705 20.1744C18.5205 21.0005 17.4405 21.9027 16.2905 22.6853C15.7475 23.0985 15.131 23.3836 14.4805 23.5223C14.1089 23.5752 13.7313 23.5456 13.3705 23.4353C12.3705 23.0983 11.3005 22.8701 10.2805 22.544C9.93653 22.4389 9.60186 22.3007 9.28051 22.1309C9.22837 22.1024 9.17823 22.0697 9.13051 22.0331C9.04669 21.9789 8.97558 21.9043 8.9228 21.8152C8.87001 21.726 8.83699 21.6248 8.82632 21.5194C8.81566 21.414 8.82765 21.3074 8.86134 21.2079C8.89504 21.1084 8.94953 21.0188 9.02051 20.9461C9.24611 20.7071 9.51521 20.522 9.81051 20.4026L13.7505 18.5222L19.8305 15.6634C22.1205 14.5764 24.4205 13.5764 26.7305 12.5872C27.347 12.2862 27.9779 12.0213 28.6205 11.7937C28.9425 11.6765 29.2866 11.6503 29.6205 11.7177C29.8594 11.7622 30.0771 11.8943 30.2372 12.0921C30.3973 12.2899 30.4903 12.5414 30.5005 12.8046C30.5305 12.8481 30.5205 12.9785 30.5205 13.109Z" fill="#FF3944"/>
</svg>
