<svg width="41" height="45" viewBox="0 0 41 45" fill="none" xmlns="http://www.w3.org/2000/svg">
<path d="M40.5718 17.3156C40.6253 14.6088 40.4882 11.9016 40.1618 9.21758C39.999 6.67806 38.921 4.31094 37.1618 2.63048C35.6229 1.35644 33.764 0.621009 31.8318 0.521735C24.2152 -0.173912 16.5584 -0.173912 8.94178 0.521735C3.70178 1.00001 1.03178 3.97833 0.431778 9.6415C0.078822 13.7747 -0.0547327 17.9266 0.0317782 22.0766C-0.0702245 26.3395 0.0733898 30.6052 0.461778 34.8486C0.921778 38.8052 2.46178 41.9031 6.27178 43.1422C7.61372 43.5686 8.99595 43.8275 10.3918 43.914C15.3318 44.2836 20.2818 44.0662 25.2218 44.1097C27.4974 44.1375 29.7723 44.0031 32.0318 43.7075C36.3618 43.1096 38.8818 40.8487 39.8418 36.6095C40.0991 35.4566 40.2663 34.2821 40.3418 33.0985C40.7418 27.8376 40.5218 22.5874 40.5718 17.3156ZM32.6618 31.8376C31.7818 31.8376 30.8918 31.8376 30.0018 31.8376C29.7406 31.8815 29.4739 31.8177 29.2537 31.6589C29.0336 31.5 28.876 31.2575 28.8118 30.9789C28.3467 29.6042 27.5753 28.3762 26.5666 27.405C25.5579 26.4338 24.3434 25.7495 23.0318 25.4136C22.3418 25.2505 22.1418 25.4136 22.1618 26.1745C22.2218 27.7289 22.1618 29.2941 22.1618 30.8376C22.2118 31.7398 21.9018 31.8485 21.1618 31.8268C13.8518 31.6094 8.79178 26.8375 7.40178 18.783C7.13731 17.3313 6.97683 15.8594 6.92178 14.3807C6.92178 13.7285 7.04178 13.4351 7.70178 13.4568C8.72423 13.522 9.74932 13.522 10.7718 13.4568C11.3718 13.4568 11.5018 13.7068 11.5318 14.2938C11.6055 16.7825 12.1287 19.2312 13.0718 21.5005C13.7936 23.279 15.0341 24.7498 16.6018 25.6853C17.6518 26.2832 17.7118 26.2506 17.7218 24.9897C17.7218 21.5113 17.7218 18.033 17.7218 14.5438C17.7218 13.7503 17.8718 13.3916 18.6718 13.4568C19.5237 13.5329 20.3799 13.5329 21.2318 13.4568C21.9318 13.4568 22.2318 13.6416 22.1618 14.446C22.1118 16.1851 22.1618 17.9352 22.1618 19.6635C22.1618 20.8591 22.2118 20.9026 23.2518 20.4352C24.3615 19.9124 25.3593 19.1449 26.1821 18.1814C27.0049 17.2178 27.6347 16.0791 28.0318 14.8373C28.4318 13.7503 28.8918 13.3155 29.9418 13.4568C30.6231 13.5383 31.3105 13.5383 31.9918 13.4568C32.7918 13.4025 32.9018 13.7394 32.6918 14.5438C31.8606 17.6195 30.0989 20.3004 27.6918 22.1526C27.5218 22.2722 27.3618 22.4135 27.2018 22.544C27.0418 22.6744 27.2018 22.62 27.1418 22.6961C30.0669 24.342 32.3364 27.0951 33.5218 30.4354C34.0318 31.8376 34.0318 31.8376 32.6618 31.8376Z" fill="#FF3944"/>
</svg>
