<svg width="42" height="45" viewBox="0 0 42 45" fill="none" xmlns="http://www.w3.org/2000/svg">
<g clip-path="url(#clip0_30_130)">
<path d="M32.37 0H8.77C6.44405 0 4.21337 1.00435 2.56867 2.7921C0.92398 4.57985 0 7.00456 0 9.53282L0 35.1856C0 37.7138 0.92398 40.1385 2.56867 41.9263C4.21337 43.714 6.44405 44.7184 8.77 44.7184H32.37C34.6942 44.7155 36.9223 43.7099 38.5649 41.9224C40.2074 40.135 41.13 37.7119 41.13 35.1856V9.53282C41.13 7.00644 40.2074 4.58338 38.5649 2.79594C36.9223 1.0085 34.6942 0.00288071 32.37 0ZM13.73 31.055V13.6633L29.37 22.3592L13.73 31.055Z" fill="#FF3944"/>
</g>
<defs>
<clipPath id="clip0_30_130">
<rect width="41.13" height="44.7184" fill="white"/>
</clipPath>
</defs>
</svg>
